<svg width="138" height="94" viewBox="0 0 138 94" fill="none" xmlns="http://www.w3.org/2000/svg">
<path d="M47.5389 44.4287C47.5389 44.4287 47.2909 44.4287 46.7949 44.4287C46.3205 44.4287 45.6951 44.4396 44.9187 44.4614C44.1424 44.4614 43.3121 44.4614 42.4279 44.4614V49.8863H38.1257V36.7489C38.1257 36.1171 38.2551 35.6487 38.5138 35.3437C38.7942 35.0169 39.3225 34.8535 40.0989 34.8535C40.4224 34.8535 40.886 34.8535 41.4899 34.8535C42.1152 34.8317 42.8053 34.8208 43.5601 34.8208C44.3365 34.8208 45.1344 34.8208 45.9539 34.8208C46.7949 34.799 47.5928 34.799 48.3476 34.8208C49.1024 34.8208 49.7602 34.8317 50.3208 34.8535C50.9031 34.8535 51.3344 34.8644 51.6148 34.8861C52.7577 34.9951 53.6096 35.3655 54.1703 35.9973C54.731 36.6073 55.0113 37.5659 55.0113 38.8731C55.0113 40.006 54.9035 40.8666 54.6878 41.4548C54.4722 42.0213 54.1379 42.4461 53.685 42.7294C53.5772 42.8165 53.4047 42.8927 53.1675 42.9581C52.9518 43.0235 52.7146 43.0562 52.4558 43.0562V43.1542C52.5852 43.1542 52.7254 43.1542 52.8763 43.1542C53.0273 43.1542 53.1567 43.1542 53.2645 43.1542C54.084 43.3067 54.58 43.6335 54.7525 44.1346C54.925 44.6139 55.0113 45.115 55.0113 45.6379V48.8405C55.0113 49.1673 55.0437 49.4179 55.1083 49.5922C55.173 49.7664 55.2162 49.8645 55.2377 49.8863H52.0676C51.5932 49.8863 51.2266 49.81 50.9678 49.6575C50.709 49.505 50.5796 49.1673 50.5796 48.6444V46.0627C50.5796 45.3873 50.4287 44.9516 50.1268 44.7555C49.8464 44.5376 49.3396 44.4287 48.6064 44.4287H47.5389ZM42.4279 42.2718C42.6867 42.2718 43.0857 42.2827 43.6248 42.3045C44.1855 42.3045 44.7786 42.3154 45.404 42.3372C46.0509 42.3372 46.644 42.3372 47.1831 42.3372C47.7438 42.3372 48.1428 42.3372 48.38 42.3372C48.9622 42.3372 49.4798 42.152 49.9327 41.7816C50.3855 41.3895 50.612 40.6814 50.612 39.6574C50.612 38.9385 50.4826 38.372 50.2238 37.9581C49.965 37.5441 49.5553 37.3045 48.9946 37.2391C48.628 37.1955 48.1643 37.1737 47.6036 37.1737C47.0429 37.152 46.4607 37.1411 45.8568 37.1411C45.253 37.1411 44.6923 37.152 44.1747 37.1737C43.6787 37.1737 43.3013 37.1846 43.0426 37.2064C42.9994 37.2064 42.8808 37.2391 42.6867 37.3045C42.5142 37.3698 42.4279 37.5441 42.4279 37.8273V42.2718Z" fill="#FD292F"/>
<path d="M57.2681 49.6597L62.1181 37.1681C62.4198 36.3698 62.8617 35.7549 63.4437 35.3234C64.0257 34.8704 64.9634 34.6439 66.2567 34.6439C67.3345 34.6439 68.1859 34.8488 68.811 35.2587C69.4361 35.6686 69.9211 36.3051 70.266 37.1681L75.1807 49.6597H70.4924L69.102 46.0676H61.8917L60.5984 49.6597H57.2681ZM62.6031 44.3524H68.2937L66.4184 39.1098C66.3537 38.894 66.2567 38.6999 66.1274 38.5273C66.0196 38.3331 65.804 38.236 65.4807 38.236C65.1143 38.236 64.8664 38.3331 64.7371 38.5273C64.6293 38.6999 64.5323 38.894 64.4461 39.1098L62.6031 44.3524Z" fill="black"/>
<path d="M77.8052 49.6597V36.2943C77.8052 35.6039 77.9022 35.1832 78.0962 35.0322C78.3118 34.8596 78.7644 34.7733 79.4542 34.7733H82.7199L87.0525 44.4171L87.1172 44.7084L87.1818 44.676L87.2465 44.3524L91.4822 34.7733H94.9418C95.61 34.7733 96.0411 34.8596 96.2351 35.0322C96.4291 35.2048 96.5261 35.5931 96.5261 36.1972V48.2358C96.5261 48.6889 96.4723 49.0125 96.3645 49.2067C96.2783 49.4008 96.1166 49.5303 95.8795 49.595C95.6639 49.6382 95.3406 49.6597 94.9095 49.6597H92.1935V39.4334L91.9995 40.1777L87.8285 49.6597H85.1449L81.0385 40.3072L80.8769 39.5628V49.6597H77.8052Z" fill="black"/>
<path d="M108.906 49.8863C107.333 49.8863 105.975 49.7784 104.832 49.5627C103.711 49.3469 102.774 48.9586 102.019 48.3976C101.286 47.8367 100.737 47.06 100.37 46.0676C100.025 45.0536 99.8529 43.7699 99.8529 42.2165C99.8529 40.62 100.036 39.3255 100.403 38.3331C100.791 37.3191 101.362 36.5424 102.116 36.003C102.892 35.4421 103.851 35.0538 104.994 34.838C106.158 34.6223 107.516 34.5144 109.068 34.5144C110.62 34.5144 111.956 34.6223 113.077 34.838C114.22 35.0538 115.157 35.4421 115.89 36.003C116.645 36.564 117.194 37.3515 117.539 38.3655C117.906 39.3579 118.089 40.6416 118.089 42.2165C118.089 43.7915 117.895 45.0859 117.507 46.0999C117.14 47.0924 116.58 47.869 115.826 48.43C115.071 48.9909 114.112 49.3793 112.948 49.595C111.805 49.7892 110.458 49.8863 108.906 49.8863ZM108.971 47.5886C109.747 47.5886 110.426 47.5239 111.008 47.3944C111.611 47.2434 112.107 46.9737 112.495 46.5854C112.883 46.197 113.174 45.6577 113.368 44.9673C113.562 44.2553 113.659 43.3384 113.659 42.2165C113.659 41.0731 113.562 40.1561 113.368 39.4658C113.174 38.7538 112.883 38.2037 112.495 37.8153C112.107 37.427 111.611 37.1681 111.008 37.0386C110.426 36.8876 109.747 36.8121 108.971 36.8121C108.173 36.8121 107.473 36.8876 106.869 37.0386C106.287 37.1681 105.802 37.427 105.414 37.8153C105.048 38.2037 104.768 38.7538 104.574 39.4658C104.38 40.1561 104.283 41.0731 104.283 42.2165C104.283 43.3384 104.38 44.2553 104.574 44.9673C104.768 45.6577 105.048 46.197 105.414 46.5854C105.802 46.9737 106.287 47.2434 106.869 47.3944C107.473 47.5239 108.173 47.5886 108.971 47.5886Z" fill="black"/>
<path d="M120.635 46.5854C121.152 46.8443 121.81 47.0384 122.607 47.1679C123.405 47.2757 124.235 47.3513 125.097 47.3944C125.959 47.416 126.724 47.4268 127.392 47.4268C127.63 47.4268 127.921 47.4268 128.265 47.4268C128.632 47.4268 128.934 47.416 129.171 47.3944C129.861 47.3728 130.453 47.2973 130.949 47.1679C131.445 47.0169 131.822 46.7795 132.081 46.4559C132.339 46.1323 132.469 45.6792 132.469 45.0967C132.469 44.3848 132.275 43.9209 131.887 43.7052C131.499 43.4678 130.906 43.3492 130.108 43.3492C129.85 43.3492 129.548 43.3492 129.203 43.3492C128.88 43.3492 128.492 43.3492 128.039 43.3492C127.586 43.3492 127.026 43.3492 126.358 43.3492C125.69 43.3492 125.021 43.3168 124.353 43.2521C123.685 43.1874 123.071 43.0364 122.51 42.799C121.971 42.5617 121.54 42.1842 121.217 41.6664C120.894 41.127 120.732 40.3827 120.732 39.4334C120.732 38.3115 120.926 37.4378 121.314 36.8121C121.702 36.1649 122.251 35.6902 122.963 35.3882C123.674 35.0646 124.515 34.8596 125.485 34.7733C126.455 34.687 127.511 34.6439 128.653 34.6439C129.343 34.6439 130.098 34.6546 130.917 34.6762C131.736 34.6978 132.501 34.7409 133.212 34.8057C133.945 34.8704 134.506 34.9675 134.894 35.0969C135.497 35.1401 135.961 35.3127 136.284 35.6147C136.607 35.8952 136.769 36.2512 136.769 36.6826C136.769 36.7474 136.769 36.866 136.769 37.0386C136.769 37.2112 136.769 37.3838 136.769 37.5564C136.769 37.729 136.769 37.8261 136.769 37.8477C136.597 37.6751 136.273 37.5348 135.799 37.427C135.346 37.3191 134.818 37.2436 134.215 37.2004C133.633 37.1357 133.051 37.0926 132.469 37.071C131.887 37.0494 131.391 37.0386 130.981 37.0386H128.427C127.759 37.0386 127.177 37.0926 126.681 37.2004C126.207 37.3083 125.83 37.5133 125.549 37.8153C125.291 38.0958 125.161 38.5273 125.161 39.1098C125.161 39.5628 125.248 39.9188 125.42 40.1777C125.614 40.415 125.884 40.5769 126.228 40.6631C126.595 40.7494 127.048 40.7926 127.586 40.7926C128.729 40.7926 129.667 40.7926 130.399 40.7926C131.154 40.7926 131.682 40.7926 131.984 40.7926C132.997 40.7926 133.881 40.8789 134.635 41.0515C135.39 41.2241 135.972 41.6016 136.381 42.1842C136.812 42.7667 137.028 43.6728 137.028 44.9025C137.028 46.0676 136.78 46.9953 136.284 47.6857C135.81 48.3761 135.152 48.8723 134.312 49.1743C133.471 49.4764 132.49 49.6597 131.369 49.7245C130.529 49.7892 129.72 49.8215 128.944 49.8215C128.168 49.8215 127.349 49.8215 126.487 49.8215C125.754 49.8 125.032 49.7676 124.321 49.7245C123.631 49.6813 123.006 49.595 122.445 49.4656C121.907 49.3361 121.465 49.1635 121.12 48.9478C120.797 48.7105 120.635 48.3976 120.635 48.0093V46.5854Z" fill="black"/>
<path d="M114.597 62.7222C113.99 62.7222 113.488 62.6859 113.092 62.6133C112.697 62.5315 112.384 62.3953 112.154 62.2046C111.923 62.0139 111.758 61.7414 111.657 61.3873C111.555 61.0331 111.505 60.579 111.505 60.0251C111.505 59.3349 111.597 58.7809 111.781 58.3632C111.974 57.9454 112.305 57.6412 112.775 57.4505C113.253 57.2598 113.916 57.1645 114.763 57.1645C115.426 57.1645 115.955 57.2371 116.351 57.3824C116.746 57.5277 117.032 57.7593 117.207 58.0771C117.381 58.3859 117.469 58.7855 117.469 59.2759V60.2294H113.603C113.603 60.0659 113.64 59.9297 113.714 59.8207C113.796 59.7027 113.939 59.6437 114.142 59.6437H115.964V59.3167C115.955 58.8808 115.858 58.5584 115.674 58.3496C115.499 58.1407 115.177 58.0363 114.708 58.0363C114.312 58.0363 114.004 58.0953 113.783 58.2133C113.571 58.3314 113.419 58.5312 113.327 58.8127C113.244 59.0942 113.203 59.4893 113.203 59.9978C113.203 60.4882 113.253 60.8606 113.355 61.1148C113.456 61.3691 113.631 61.5417 113.879 61.6325C114.137 61.7142 114.491 61.7551 114.942 61.7551C115.108 61.7551 115.315 61.7505 115.564 61.7414C115.821 61.7324 116.079 61.7233 116.337 61.7142C116.604 61.696 116.838 61.6779 117.041 61.6597C117.243 61.6325 117.372 61.6098 117.427 61.5916V61.8096C117.427 61.9185 117.404 62.0366 117.358 62.1637C117.322 62.2818 117.234 62.3771 117.096 62.4498C116.921 62.5588 116.627 62.6314 116.212 62.6677C115.808 62.7041 115.269 62.7222 114.597 62.7222Z" fill="black"/>
<path d="M117.843 62.6405L119.941 59.9433L118.284 57.7093C118.22 57.6094 118.151 57.5141 118.077 57.4233C118.013 57.3234 117.939 57.2462 117.856 57.1917H120.01L121.211 58.7991L122.454 57.1917H123.71C123.692 57.2189 123.659 57.2553 123.613 57.3007C123.577 57.3461 123.531 57.4096 123.475 57.4914L121.915 59.7254L124.097 62.6405H122.675C122.435 62.6405 122.228 62.5996 122.053 62.5179C121.878 62.4362 121.722 62.3045 121.584 62.1229L120.562 60.7743L119.113 62.6405H117.843Z" fill="black"/>
<path d="M124.75 64.0981L124.763 58.2815C124.763 58.0544 124.759 57.8501 124.75 57.6685C124.75 57.4868 124.74 57.3779 124.722 57.3415C124.796 57.3234 124.943 57.3052 125.164 57.287C125.385 57.2598 125.638 57.2371 125.923 57.2189C126.218 57.2008 126.512 57.1872 126.807 57.1781C127.11 57.1599 127.382 57.1508 127.621 57.1508C128.44 57.1508 129.08 57.2462 129.54 57.4369C130.01 57.6276 130.336 57.9318 130.52 58.3496C130.714 58.7582 130.801 59.294 130.783 59.957C130.764 60.629 130.672 61.1693 130.507 61.578C130.35 61.9776 130.088 62.2636 129.72 62.4362C129.361 62.5996 128.864 62.6814 128.229 62.6814C127.842 62.6814 127.506 62.645 127.221 62.5724C126.945 62.4997 126.724 62.3817 126.558 62.2182C126.392 62.0457 126.273 61.8277 126.199 61.5644L126.448 61.4281V64.0981H124.75ZM127.787 61.7823C128.265 61.7823 128.597 61.6325 128.781 61.3328C128.974 61.024 129.071 60.5291 129.071 59.848C129.089 59.185 128.997 58.7219 128.795 58.4585C128.592 58.1861 128.219 58.0499 127.676 58.0499C127.557 58.0499 127.419 58.0544 127.262 58.0635C127.106 58.0726 126.954 58.0862 126.807 58.1044C126.659 58.1135 126.54 58.1225 126.448 58.1316V60.352C126.448 60.7425 126.503 61.0422 126.613 61.2511C126.724 61.4508 126.876 61.5916 127.069 61.6733C127.271 61.746 127.511 61.7823 127.787 61.7823Z" fill="black"/>
<path d="M134.861 62.7222C134.373 62.7222 133.94 62.6904 133.563 62.6269C133.185 62.5542 132.863 62.4225 132.596 62.2318C132.339 62.032 132.141 61.746 132.003 61.3737C131.865 61.0013 131.796 60.52 131.796 59.9297C131.796 59.3394 131.865 58.8581 132.003 58.4858C132.141 58.1135 132.339 57.8319 132.596 57.6412C132.863 57.4414 133.185 57.3098 133.563 57.2462C133.94 57.1735 134.373 57.1372 134.861 57.1372C135.358 57.1372 135.79 57.1735 136.158 57.2462C136.536 57.3098 136.853 57.4414 137.111 57.6412C137.369 57.8319 137.562 58.1135 137.691 58.4858C137.829 58.8581 137.898 59.3394 137.898 59.9297C137.898 60.5291 137.829 61.0149 137.691 61.3873C137.562 61.7505 137.369 62.032 137.111 62.2318C136.853 62.4225 136.536 62.5542 136.158 62.6269C135.781 62.6904 135.348 62.7222 134.861 62.7222ZM134.861 61.8913C135.155 61.8913 135.399 61.8413 135.592 61.7414C135.795 61.6416 135.947 61.4508 136.048 61.1693C136.149 60.8878 136.2 60.4746 136.2 59.9297C136.2 59.3848 136.149 58.9716 136.048 58.6901C135.947 58.4086 135.795 58.2179 135.592 58.118C135.399 58.0181 135.155 57.9681 134.861 57.9681C134.575 57.9681 134.331 58.0181 134.129 58.118C133.926 58.2179 133.77 58.4086 133.659 58.6901C133.549 58.9716 133.494 59.3848 133.494 59.9297C133.494 60.4746 133.549 60.8878 133.659 61.1693C133.77 61.4508 133.926 61.6416 134.129 61.7414C134.331 61.8413 134.575 61.8913 134.861 61.8913Z" fill="black"/>
<path d="M9.15003 38.9381C9.41837 23.2766 34.009 -1.51442 61.8268 11.6152" stroke="url(#paint0_linear_998_3662)" stroke-width="4" stroke-dasharray="1 1"/>
<path d="M38.647 2.49072C30.2592 3.37811 11.8737 10.2381 5.2923 29.7842" stroke="url(#paint1_linear_998_3662)" stroke-width="4" stroke-dasharray="1 1"/>
<path d="M2.18793 52.8233C3.20039 62.1332 12.3262 84.4658 34.6324 87.9468" stroke="url(#paint2_linear_998_3662)" stroke-width="4" stroke-dasharray="1 1"/>
<path d="M38.0779 14.4782C43.5261 13.0927 56.7741 12.686 66.18 22.1432" stroke="url(#paint3_linear_998_3662)" stroke-width="4" stroke-dasharray="1 1"/>
<path d="M45.4607 2.41148C51.3549 1.35496 66.5543 3.5717 77.5115 15.3805" stroke="url(#paint4_linear_998_3662)" stroke-width="4" stroke-dasharray="1 1"/>
<path d="M49.3014 71.2015C51.8285 71.3315 58.4524 71.4433 65.1312 66.9908" stroke="url(#paint5_linear_998_3662)" stroke-width="4" stroke-dasharray="1 1"/>
<path d="M42.393 63.8245C33.1538 60.7166 26.0703 55.0497 27.548 41.8103" stroke="url(#paint6_linear_998_3662)" stroke-width="4" stroke-dasharray="1 1"/>
<path d="M46.26 64.7524C48.0668 65.1101 55.6189 65.9786 62.2977 61.1213" stroke="url(#paint7_linear_998_3662)" stroke-width="4" stroke-dasharray="1 1"/>
<path d="M23.7472 32.5162C26.1029 28.005 34.4243 17.2554 51.7734 21.2509" stroke="url(#paint8_linear_998_3662)" stroke-width="4" stroke-dasharray="1 1"/>
<path d="M22.3261 35.7555C19.0596 44.9762 19.5464 66.0256 44.9441 71.1813" stroke="url(#paint9_linear_998_3662)" stroke-width="4" stroke-dasharray="1 1"/>
<path d="M33.4312 16.0841C23.4493 19.3113 6.85858 35.4418 18.0705 61.1909" stroke="url(#paint10_linear_998_3662)" stroke-width="4" stroke-dasharray="1 1"/>
<path d="M24.2219 67.9834C27.6427 72.0008 39.6303 80.1461 53.2929 77.0853" stroke="url(#paint11_linear_998_3662)" stroke-width="4" stroke-dasharray="1 1"/>
<path d="M8.73917 46.4136C8.17227 55.0073 13.2004 75.7632 36.1079 82.0165C40.6897 83.2673 55.7878 86.1362 64.7265 79.9436" stroke="url(#paint12_linear_998_3662)" stroke-width="4" stroke-dasharray="1 1"/>
<defs>
<linearGradient id="paint0_linear_998_3662" x1="103.824" y1="22.0919" x2="67.0464" y2="-32.9857" gradientUnits="userSpaceOnUse">
<stop stop-color="#D61607"/>
<stop offset="0.489583" stop-color="#F87717"/>
<stop offset="1" stop-color="#FECE24"/>
</linearGradient>
<linearGradient id="paint1_linear_998_3662" x1="61.8915" y1="29.9054" x2="22.5679" y2="-17.9059" gradientUnits="userSpaceOnUse">
<stop stop-color="#D61607"/>
<stop offset="0.489583" stop-color="#F87717"/>
<stop offset="1" stop-color="#FECE24"/>
</linearGradient>
<linearGradient id="paint2_linear_998_3662" x1="20.8851" y1="18.0689" x2="-26.3196" y2="62.0219" gradientUnits="userSpaceOnUse">
<stop stop-color="#D61607"/>
<stop offset="0.489583" stop-color="#F87717"/>
<stop offset="1" stop-color="#FECE24"/>
</linearGradient>
<linearGradient id="paint3_linear_998_3662" x1="84.2381" y1="18.9654" x2="64.816" y2="-7.99747" gradientUnits="userSpaceOnUse">
<stop stop-color="#D61607"/>
<stop offset="0.489583" stop-color="#F87717"/>
<stop offset="1" stop-color="#FECE24"/>
</linearGradient>
<linearGradient id="paint4_linear_998_3662" x1="99.1921" y1="13.8157" x2="78.6943" y2="-20.8976" gradientUnits="userSpaceOnUse">
<stop stop-color="#D61607"/>
<stop offset="0.489583" stop-color="#F87717"/>
<stop offset="1" stop-color="#FECE24"/>
</linearGradient>
<linearGradient id="paint5_linear_998_3662" x1="76.5249" y1="69.2328" x2="74.0452" y2="60.5014" gradientUnits="userSpaceOnUse">
<stop stop-color="#D61607"/>
<stop offset="0.489583" stop-color="#F87717"/>
<stop offset="1" stop-color="#FECE24"/>
</linearGradient>
<linearGradient id="paint6_linear_998_3662" x1="50.5705" y1="62.4693" x2="20.515" y2="53.9527" gradientUnits="userSpaceOnUse">
<stop stop-color="#D61607"/>
<stop offset="0.489583" stop-color="#F87717"/>
<stop offset="1" stop-color="#FECE24"/>
</linearGradient>
<linearGradient id="paint7_linear_998_3662" x1="73.5286" y1="58.7565" x2="70.586" y2="52.5793" gradientUnits="userSpaceOnUse">
<stop stop-color="#D61607"/>
<stop offset="0.489583" stop-color="#F87717"/>
<stop offset="1" stop-color="#FECE24"/>
</linearGradient>
<linearGradient id="paint8_linear_998_3662" x1="71.184" y1="13.1342" x2="62.2706" y2="-0.408438" gradientUnits="userSpaceOnUse">
<stop stop-color="#D61607"/>
<stop offset="0.489583" stop-color="#F87717"/>
<stop offset="1" stop-color="#FECE24"/>
</linearGradient>
<linearGradient id="paint9_linear_998_3662" x1="58.3025" y1="68.9639" x2="9.51741" y2="54.7043" gradientUnits="userSpaceOnUse">
<stop stop-color="#D61607"/>
<stop offset="0.489583" stop-color="#F87717"/>
<stop offset="1" stop-color="#FECE24"/>
</linearGradient>
<linearGradient id="paint10_linear_998_3662" x1="57.5427" y1="54.309" x2="-0.310575" y2="33.2044" gradientUnits="userSpaceOnUse">
<stop stop-color="#D61607"/>
<stop offset="0.489583" stop-color="#F87717"/>
<stop offset="1" stop-color="#FECE24"/>
</linearGradient>
<linearGradient id="paint11_linear_998_3662" x1="71.5711" y1="73.5429" x2="47.4274" y2="44.7435" gradientUnits="userSpaceOnUse">
<stop stop-color="#D61607"/>
<stop offset="0.489583" stop-color="#F87717"/>
<stop offset="1" stop-color="#FECE24"/>
</linearGradient>
<linearGradient id="paint12_linear_998_3662" x1="99.3014" y1="75.7184" x2="22.4037" y2="15.8477" gradientUnits="userSpaceOnUse">
<stop stop-color="#D61607"/>
<stop offset="0.489583" stop-color="#F87717"/>
<stop offset="1" stop-color="#FECE24"/>
</linearGradient>
</defs>
</svg>
