<svg width="24" height="25" viewBox="0 0 24 25" fill="none" xmlns="http://www.w3.org/2000/svg">
<path d="M17 4.44189H7C4 4.44189 2 5.94189 2 9.44189V16.4419C2 19.9419 4 21.4419 7 21.4419H17C20 21.4419 22 19.9419 22 16.4419V9.44189C22 5.94189 20 4.44189 17 4.44189ZM17.47 10.5319L14.34 13.0319C13.68 13.5619 12.84 13.8219 12 13.8219C11.16 13.8219 10.31 13.5619 9.66 13.0319L6.53 10.5319C6.21 10.2719 6.16 9.79189 6.41 9.47189C6.67 9.15189 7.14 9.09189 7.46 9.35189L10.59 11.8519C11.35 12.4619 12.64 12.4619 13.4 11.8519L16.53 9.35189C16.85 9.09189 17.33 9.14189 17.58 9.47189C17.84 9.79189 17.79 10.2719 17.47 10.5319Z" fill="#E7284A"/>
</svg>
