<svg width="24" height="25" viewBox="0 0 24 25" fill="none" xmlns="http://www.w3.org/2000/svg">
<path d="M17.62 11.692C17.19 11.692 16.85 11.342 16.85 10.922C16.85 10.552 16.48 9.78199 15.86 9.11199C15.25 8.46199 14.58 8.08199 14.02 8.08199C13.59 8.08199 13.25 7.73199 13.25 7.31199C13.25 6.89199 13.6 6.54199 14.02 6.54199C15.02 6.54199 16.07 7.08199 16.99 8.05199C17.85 8.96199 18.4 10.092 18.4 10.912C18.4 11.342 18.05 11.692 17.62 11.692Z" fill="#E7284A"/>
<path d="M21.2317 11.6919C20.8017 11.6919 20.4617 11.3419 20.4617 10.9219C20.4617 7.37189 17.5717 4.49189 14.0317 4.49189C13.6017 4.49189 13.2617 4.14189 13.2617 3.72189C13.2617 3.30189 13.6017 2.94189 14.0217 2.94189C18.4217 2.94189 22.0017 6.52189 22.0017 10.9219C22.0017 11.3419 21.6517 11.6919 21.2317 11.6919Z" fill="#E7284A"/>
<path d="M11.05 15.8919L9.2 17.7419C8.81 18.1319 8.19 18.1319 7.79 17.7519C7.68 17.6419 7.57 17.5419 7.46 17.4319C6.43 16.3919 5.5 15.3019 4.67 14.1619C3.85 13.0219 3.19 11.8819 2.71 10.7519C2.24 9.6119 2 8.52189 2 7.48189C2 6.80189 2.12 6.15189 2.36 5.55189C2.6 4.94189 2.98 4.38189 3.51 3.88189C4.15 3.25189 4.85 2.94189 5.59 2.94189C5.87 2.94189 6.15 3.00189 6.4 3.12189C6.66 3.24189 6.89 3.42189 7.07 3.68189L9.39 6.95189C9.57 7.20189 9.7 7.43189 9.79 7.65189C9.88 7.86189 9.93 8.07189 9.93 8.26189C9.93 8.50189 9.86 8.74189 9.72 8.97189C9.59 9.20189 9.4 9.44189 9.16 9.68189L8.4 10.4719C8.29 10.5819 8.24 10.7119 8.24 10.8719C8.24 10.9519 8.25 11.0219 8.27 11.1019C8.3 11.1819 8.33 11.2419 8.35 11.3019C8.53 11.6319 8.84 12.0619 9.28 12.5819C9.73 13.1019 10.21 13.6319 10.73 14.1619C10.83 14.2619 10.94 14.3619 11.04 14.4619C11.44 14.8519 11.45 15.4919 11.05 15.8919Z" fill="#E7284A"/>
<path d="M21.9716 19.2719C21.9716 19.5519 21.9216 19.8419 21.8216 20.1219C21.7916 20.2019 21.7616 20.2819 21.7216 20.3619C21.5516 20.7219 21.3316 21.0619 21.0416 21.3819C20.5516 21.9219 20.0116 22.3119 19.4016 22.5619C19.3916 22.5619 19.3816 22.5719 19.3716 22.5719C18.7816 22.8119 18.1416 22.9419 17.4516 22.9419C16.4316 22.9419 15.3416 22.7019 14.1916 22.2119C13.0416 21.7219 11.8916 21.0619 10.7516 20.2319C10.3616 19.9419 9.97156 19.6519 9.60156 19.3419L12.8716 16.0719C13.1516 16.2819 13.4016 16.4419 13.6116 16.5519C13.6616 16.5719 13.7216 16.6019 13.7916 16.6319C13.8716 16.6619 13.9516 16.6719 14.0416 16.6719C14.2116 16.6719 14.3416 16.6119 14.4516 16.5019L15.2116 15.7519C15.4616 15.5019 15.7016 15.3119 15.9316 15.1919C16.1616 15.0519 16.3916 14.9819 16.6416 14.9819C16.8316 14.9819 17.0316 15.0219 17.2516 15.1119C17.4716 15.2019 17.7016 15.3319 17.9516 15.5019L21.2616 17.8519C21.5216 18.0319 21.7016 18.2419 21.8116 18.4919C21.9116 18.7419 21.9716 18.9919 21.9716 19.2719Z" fill="#E7284A"/>
</svg>
