<svg xmlns="http://www.w3.org/2000/svg" width="199" height="228" viewBox="0 0 199 228" fill="none">
  <path d="M82.552 2.09516C83.9125 0.76382 86.0875 0.763821 87.448 2.09516L101.068 15.4236C102.37 16.6983 104.313 17.0615 105.988 16.3434L123.503 8.83507C125.253 8.08508 127.281 8.87079 128.069 10.6037L135.954 27.9522C136.708 29.6113 138.389 30.6518 140.21 30.5873L159.254 29.9131C161.157 29.8458 162.764 31.3111 162.873 33.2115L163.958 52.237C164.062 54.0566 165.253 55.6338 166.975 56.2316L184.977 62.4827C186.775 63.1071 187.745 65.054 187.159 66.8653L181.299 84.9984C180.739 86.7325 181.28 88.6335 182.669 89.8129L197.197 102.145C198.649 103.377 198.849 105.542 197.649 107.02L185.634 121.812C184.485 123.226 184.303 125.194 185.172 126.796L194.265 143.543C195.173 145.216 194.578 147.308 192.925 148.252L176.378 157.705C174.795 158.609 173.914 160.378 174.147 162.186L176.575 181.087C176.818 182.975 175.507 184.711 173.625 184.994L154.781 187.831C152.978 188.102 151.518 189.433 151.081 191.203L146.518 209.705C146.062 211.553 144.213 212.698 142.355 212.282L123.759 208.12C121.981 207.722 120.138 208.436 119.091 209.928L108.152 225.533C107.06 227.091 104.922 227.491 103.34 226.432L87.5028 215.833C85.9882 214.82 84.0118 214.82 82.4972 215.833L66.6601 226.432C65.0781 227.491 62.9402 227.091 61.8475 225.533L50.9086 209.928C49.8624 208.436 48.0195 207.722 46.241 208.12L27.6446 212.282C25.787 212.698 23.9378 211.553 23.482 209.705L18.9186 191.203C18.4822 189.433 17.0216 188.102 15.2194 187.831L-3.62478 184.994C-5.50707 184.711 -6.81781 182.975 -6.57523 181.087L-4.14671 162.186C-3.91446 160.378 -4.79543 158.609 -6.37792 157.705L-22.9249 148.252C-24.5777 147.308 -25.1729 145.216 -24.2647 143.543L-15.1723 126.796C-14.3027 125.194 -14.4851 123.226 -15.6341 121.812L-27.6491 107.02C-28.8492 105.542 -28.6485 103.377 -27.1973 102.145L-12.669 89.8129C-11.2796 88.6335 -10.7387 86.7325 -11.2992 84.9984L-17.1594 66.8653C-17.7448 65.054 -16.7753 63.1071 -14.9771 62.4827L3.02496 56.2316C4.74661 55.6338 5.93768 54.0566 6.04153 52.237L7.12743 33.2115C7.2359 31.3111 8.84327 29.8458 10.7456 29.9131L29.7901 30.5873C31.6115 30.6518 33.2919 29.6113 34.046 27.9522L41.9314 10.6037C42.7191 8.87079 44.7472 8.08508 46.4967 8.83507L64.0117 16.3434C65.6868 17.0615 67.6296 16.6983 68.9321 15.4236L82.552 2.09516Z" stroke="#FE921F"/>
</svg>