<svg xmlns="http://www.w3.org/2000/svg" width="40" height="40" fill="none"><path d="m36.101 17.4-1.633 6.967c-1.4 6.016-4.167 8.45-9.367 7.95a17.504 17.504 0 0 1-2.7-.45l-2.8-.667c-6.95-1.65-9.1-5.083-7.467-12.05l1.634-6.983C14.1 10.75 14.5 9.517 15 8.5c1.95-4.033 5.267-5.117 10.833-3.8l2.784.65C35.6 6.983 37.734 10.433 36.1 17.4Z" stroke="url(#a)" stroke-width="2" stroke-linecap="round" stroke-linejoin="round"/><path d="M25.1 32.317c-1.033.7-2.333 1.283-3.916 1.8l-2.633.866c-6.617 2.134-10.1.35-12.25-6.266l-2.134-6.584c-2.133-6.616-.366-10.116 6.25-12.25l2.634-.866c.683-.217 1.333-.4 1.95-.517-.5 1.017-.9 2.25-1.234 3.667l-1.633 6.983c-1.633 6.967.517 10.4 7.467 12.05l2.8.667c.966.233 1.866.383 2.7.45Z" stroke="url(#b)" stroke-width="2" stroke-linecap="round" stroke-linejoin="round"/><path d="m21.066 14.217 8.084 2.05" stroke="url(#c)" stroke-width="2" stroke-linecap="round" stroke-linejoin="round"/><path d="m19.434 20.667 4.833 1.233" stroke="url(#d)" stroke-width="2" stroke-linecap="round" stroke-linejoin="round"/><defs><linearGradient id="a" x1="54.048" y1="32.505" x2="12.949" y2="-3.739" gradientUnits="userSpaceOnUse"><stop stop-color="#D61607"/><stop offset=".49" stop-color="#F87717"/><stop offset="1" stop-color="#FECE24"/></linearGradient><linearGradient id="b" x1="40.286" y1="35.959" x2="1.2" y2="4.963" gradientUnits="userSpaceOnUse"><stop stop-color="#D61607"/><stop offset=".49" stop-color="#F87717"/><stop offset="1" stop-color="#FECE24"/></linearGradient><linearGradient id="c" x1="34.783" y1="16.276" x2="33.342" y2="10.623" gradientUnits="userSpaceOnUse"><stop stop-color="#D61607"/><stop offset=".49" stop-color="#F87717"/><stop offset="1" stop-color="#FECE24"/></linearGradient><linearGradient id="d" x1="27.635" y1="21.906" x2="26.764" y2="18.507" gradientUnits="userSpaceOnUse"><stop stop-color="#D61607"/><stop offset=".49" stop-color="#F87717"/><stop offset="1" stop-color="#FECE24"/></linearGradient></defs></svg>