<svg xmlns="http://www.w3.org/2000/svg" width="164" height="163" viewBox="0 0 164 163" fill="none">
  <path d="M79.2023 1.73781C80.7571 0.216274 83.2429 0.216274 84.7977 1.73781L93.2028 9.96306C94.3606 11.0961 96.0875 11.4189 97.5765 10.7806L108.385 6.1471C110.385 5.28997 112.703 6.18792 113.603 8.16837L118.469 18.8745C119.139 20.3493 120.633 21.2741 122.252 21.2168L134.005 20.8007C136.179 20.7238 138.016 22.3984 138.14 24.5703L138.81 36.3113C138.902 37.9287 139.961 39.3307 141.491 39.8621L152.601 43.7197C154.656 44.4333 155.764 46.6584 155.095 48.7284L151.478 59.9187C150.98 61.4602 151.461 63.1499 152.696 64.1983L161.662 71.8086C163.32 73.2164 163.55 75.6915 162.178 77.3801L154.763 86.5083C153.742 87.7657 153.58 89.515 154.353 90.9387L159.964 101.274C161.002 103.186 160.322 105.577 158.433 106.656L148.221 112.489C146.815 113.293 146.031 114.865 146.238 116.472L147.737 128.136C148.014 130.294 146.516 132.278 144.365 132.601L132.736 134.352C131.134 134.593 129.835 135.777 129.447 137.35L126.631 148.768C126.11 150.88 123.997 152.188 121.874 151.713L110.398 149.145C108.817 148.791 107.179 149.425 106.249 150.752L99.4982 160.382C98.2494 162.163 95.806 162.62 93.9981 161.41L84.2247 154.869C82.8784 153.968 81.1216 153.968 79.7753 154.869L70.0019 161.41C68.194 162.62 65.7506 162.163 64.5018 160.382L57.7512 150.752C56.8213 149.425 55.1831 148.791 53.6022 149.145L42.126 151.713C40.0031 152.188 37.8897 150.88 37.3688 148.768L34.5526 137.35C34.1647 135.777 32.8664 134.593 31.2645 134.352L19.6354 132.601C17.4842 132.278 15.9862 130.294 16.2634 128.136L17.7621 116.472C17.9685 114.865 17.1855 113.293 15.7788 112.489L5.56739 106.656C3.67844 105.577 2.99819 103.186 4.03615 101.274L9.64723 90.9387C10.4202 89.515 10.2581 87.7657 9.23669 86.5083L1.82206 77.3801C0.450472 75.6915 0.679828 73.2164 2.33833 71.8086L11.304 64.1983C12.5391 63.1499 13.0198 61.4602 12.5217 59.9187L8.9052 48.7284C8.23622 46.6584 9.34421 44.4333 11.3993 43.7197L22.5087 39.8621C24.039 39.3307 25.0978 37.9287 25.1901 36.3113L25.8602 24.5703C25.9842 22.3984 27.8212 20.7238 29.9952 20.8007L41.748 21.2168C43.367 21.2741 44.8606 20.3493 45.531 18.8745L50.3972 8.16837C51.2974 6.18792 53.6152 5.28997 55.6147 6.1471L66.4235 10.7806C67.9125 11.4189 69.6394 11.0961 70.7972 9.96306L79.2023 1.73781Z" fill="url(#paint0_linear_201_76)"/>
  <defs>
    <linearGradient id="paint0_linear_201_76" x1="280.683" y1="165.737" x2="36.9369" y2="-76.766" gradientUnits="userSpaceOnUse">
      <stop stop-color="#D61607"/>
      <stop offset="0.489583" stop-color="#F87717"/>
      <stop offset="1" stop-color="#FECE24"/>
    </linearGradient>
  </defs>
</svg>