<svg xmlns="http://www.w3.org/2000/svg" width="40" height="40" fill="none"><path d="M20 30.333A6.667 6.667 0 1 0 20 17a6.667 6.667 0 0 0 0 13.333Z" stroke="url(#a)" stroke-width="2" stroke-miterlimit="10" stroke-linecap="round" stroke-linejoin="round"/><path d="m17.4 23.833 1.084 1.084a.83.83 0 0 0 1.15.016L22.6 22.2" stroke="url(#b)" stroke-width="2" stroke-linecap="round" stroke-linejoin="round"/><path d="M13.333 36.667h13.333c6.7 0 7.9-2.684 8.25-5.95l1.25-13.334c.45-4.066-.717-7.383-7.833-7.383H11.666c-7.117 0-8.283 3.317-7.833 7.383l1.25 13.334c.35 3.266 1.55 5.95 8.25 5.95Z" stroke="url(#c)" stroke-width="2" stroke-miterlimit="10" stroke-linecap="round" stroke-linejoin="round"/><path d="M13.334 10V8.666c0-2.95 0-5.333 5.333-5.333h2.667c5.333 0 5.333 2.383 5.333 5.333V10" stroke="url(#d)" stroke-width="2" stroke-miterlimit="10" stroke-linecap="round" stroke-linejoin="round"/><path d="M36.084 18.333a27.224 27.224 0 0 1-9.4 4.4" stroke="url(#e)" stroke-width="2" stroke-miterlimit="10" stroke-linecap="round" stroke-linejoin="round"/><path d="M4.367 18.783a27.393 27.393 0 0 0 8.967 4.017" stroke="url(#f)" stroke-width="2" stroke-miterlimit="10" stroke-linecap="round" stroke-linejoin="round"/><defs><linearGradient id="a" x1="35.959" y1="30.392" x2="16.381" y2="10.914" gradientUnits="userSpaceOnUse"><stop stop-color="#D61607"/><stop offset=".49" stop-color="#F87717"/><stop offset="1" stop-color="#FECE24"/></linearGradient><linearGradient id="b" x1="26.224" y1="25.169" x2="22.484" y2="18.625" gradientUnits="userSpaceOnUse"><stop stop-color="#D61607"/><stop offset=".49" stop-color="#F87717"/><stop offset="1" stop-color="#FECE24"/></linearGradient><linearGradient id="c" x1="58.901" y1="36.785" x2="20.462" y2="-9.828" gradientUnits="userSpaceOnUse"><stop stop-color="#D61607"/><stop offset=".49" stop-color="#F87717"/><stop offset="1" stop-color="#FECE24"/></linearGradient><linearGradient id="d" x1="35.959" y1="10.029" x2="28.104" y2="-5.601" gradientUnits="userSpaceOnUse"><stop stop-color="#D61607"/><stop offset=".49" stop-color="#F87717"/><stop offset="1" stop-color="#FECE24"/></linearGradient><linearGradient id="e" x1="42.634" y1="22.753" x2="37.657" y2="12.173" gradientUnits="userSpaceOnUse"><stop stop-color="#D61607"/><stop offset=".49" stop-color="#F87717"/><stop offset="1" stop-color="#FECE24"/></linearGradient><linearGradient id="f" x1="19.583" y1="22.818" x2="15.167" y2="13.01" gradientUnits="userSpaceOnUse"><stop stop-color="#D61607"/><stop offset=".49" stop-color="#F87717"/><stop offset="1" stop-color="#FECE24"/></linearGradient></defs></svg>