<svg width="44" height="44" fill="none" xmlns="http://www.w3.org/2000/svg"><path d="M21.316.577a1.06 1.06 0 0 1 1.368 0l3.108 2.624c.262.222.616.302.948.217l3.939-1.016a1.06 1.06 0 0 1 1.232.594l1.662 3.712c.14.313.424.54.76.607l3.99.794c.506.1.867.552.852 1.069l-.113 4.065c-.01.344.147.67.422.877l3.25 2.446c.412.311.54.875.304 1.334l-1.867 3.614a1.06 1.06 0 0 0 0 .973l1.867 3.613a1.06 1.06 0 0 1-.305 1.334l-3.25 2.446a1.06 1.06 0 0 0-.421.877l.113 4.065a1.06 1.06 0 0 1-.853 1.07l-3.989.793a1.06 1.06 0 0 0-.76.607l-1.662 3.712a1.06 1.06 0 0 1-1.232.594l-3.939-1.016a1.06 1.06 0 0 0-.948.217l-3.108 2.624a1.06 1.06 0 0 1-1.368 0l-3.108-2.624a1.06 1.06 0 0 0-.948-.217l-3.939 1.016a1.06 1.06 0 0 1-1.232-.594l-1.662-3.712a1.06 1.06 0 0 0-.76-.607l-3.99-.794a1.06 1.06 0 0 1-.852-1.069l.113-4.066a1.06 1.06 0 0 0-.422-.876l-3.25-2.446A1.06 1.06 0 0 1 .963 26.1l1.867-3.614a1.06 1.06 0 0 0 0-.973L.962 17.9a1.06 1.06 0 0 1 .305-1.334l3.25-2.446a1.06 1.06 0 0 0 .421-.877l-.113-4.065a1.06 1.06 0 0 1 .853-1.07l3.989-.793a1.06 1.06 0 0 0 .76-.607l1.662-3.712a1.06 1.06 0 0 1 1.232-.594l3.939 1.016c.332.085.686.005.948-.217L21.316.577Z" fill="url(#a)"/><defs><linearGradient id="a" x1="74.663" y1="44.195" x2="10.056" y2="-20.083" gradientUnits="userSpaceOnUse"><stop stop-color="#D61607"/><stop offset=".49" stop-color="#F87717"/><stop offset="1" stop-color="#FECE24"/></linearGradient></defs></svg>