<svg width="62" height="61" fill="none" xmlns="http://www.w3.org/2000/svg"><path d="m1.993 30.77-.292.237.292-.237a3.5 3.5 0 0 1 .451-4.875l.37-.313a4.5 4.5 0 0 0 1.37-4.814l-.15-.46a3.5 3.5 0 0 1 2.183-4.383l.457-.16a4.5 4.5 0 0 0 3.016-3.994l.028-.483a3.5 3.5 0 0 1 3.618-3.298l.484.017a4.5 4.5 0 0 0 4.256-2.635l.2-.44a3.5 3.5 0 0 1 4.565-1.77l.445.191a4.5 4.5 0 0 0 4.92-.92l.346-.338a3.5 3.5 0 0 1 4.896 0l.346.339a4.5 4.5 0 0 0 4.92.92l.445-.191a3.5 3.5 0 0 1 4.565 1.768l.2.44a4.5 4.5 0 0 0 4.256 2.636l.484-.017a3.5 3.5 0 0 1 3.618 3.298l.028.483a4.5 4.5 0 0 0 3.016 3.995l.457.159a3.5 3.5 0 0 1 2.183 4.382l-.15.46a4.5 4.5 0 0 0 1.37 4.815l.37.313a3.5 3.5 0 0 1 .451 4.875l-.305.376a4.5 4.5 0 0 0-.462 4.984l.231.426a3.5 3.5 0 0 1-1.34 4.709l-.42.24a4.5 4.5 0 0 0-2.23 4.48l.06.48a3.5 3.5 0 0 1-2.95 3.908l-.478.072a4.5 4.5 0 0 0-3.7 3.372l-.115.47a3.5 3.5 0 0 1-4.163 2.577l-.472-.106a4.5 4.5 0 0 0-4.668 1.809l-.277.396a3.5 3.5 0 0 1-4.813.9l-.402-.27a4.5 4.5 0 0 0-5.006 0l-.402.27a3.5 3.5 0 0 1-4.813-.9l-.277-.396a4.5 4.5 0 0 0-4.668-1.809l-.472.106a3.5 3.5 0 0 1-4.163-2.577l-.116-.47a4.5 4.5 0 0 0-3.699-3.372l-.478-.072a3.5 3.5 0 0 1-2.95-3.907l.06-.48a4.5 4.5 0 0 0-2.23-4.481l-.42-.24a3.5 3.5 0 0 1-1.34-4.71l.23-.425a4.5 4.5 0 0 0-.461-4.984l-.305-.376Z" fill="#EFEFEF" stroke="#242424"/></svg>