<svg width="40" height="40" viewBox="0 0 40 40" fill="none" xmlns="http://www.w3.org/2000/svg">
<path d="M20.0007 36.6663C29.2054 36.6663 36.6673 29.2044 36.6673 19.9997C36.6673 10.7949 29.2054 3.33301 20.0007 3.33301C10.7959 3.33301 3.33398 10.7949 3.33398 19.9997C3.33398 29.2044 10.7959 36.6663 20.0007 36.6663Z" stroke="url(#paint0_linear_15_596)" stroke-width="2" stroke-linecap="round" stroke-linejoin="round"/>
<path d="M13.3333 5H15C11.75 14.7333 11.75 25.2667 15 35H13.3333" stroke="url(#paint1_linear_15_596)" stroke-width="2" stroke-linecap="round" stroke-linejoin="round"/>
<path d="M25 5C28.25 14.7333 28.25 25.2667 25 35" stroke="url(#paint2_linear_15_596)" stroke-width="2" stroke-linecap="round" stroke-linejoin="round"/>
<path d="M5 26.6667V25C14.7333 28.25 25.2667 28.25 35 25V26.6667" stroke="url(#paint3_linear_15_596)" stroke-width="2" stroke-linecap="round" stroke-linejoin="round"/>
<path d="M5 15C14.7333 11.75 25.2667 11.75 35 15" stroke="url(#paint4_linear_15_596)" stroke-width="2" stroke-linecap="round" stroke-linejoin="round"/>
<defs>
<linearGradient id="paint0_linear_15_596" x1="59.8969" y1="36.8143" x2="10.9518" y2="-11.881" gradientUnits="userSpaceOnUse">
<stop stop-color="#D61607"/>
<stop offset="0.489583" stop-color="#F87717"/>
<stop offset="1" stop-color="#FECE24"/>
</linearGradient>
<linearGradient id="paint1_linear_15_596" x1="16.6987" y1="35.1332" x2="9.62311" y2="34.5612" gradientUnits="userSpaceOnUse">
<stop stop-color="#D61607"/>
<stop offset="0.489583" stop-color="#F87717"/>
<stop offset="1" stop-color="#FECE24"/>
</linearGradient>
<linearGradient id="paint2_linear_15_596" x1="29.1362" y1="35.1332" x2="22.0606" y2="34.5612" gradientUnits="userSpaceOnUse">
<stop stop-color="#D61607"/>
<stop offset="0.489583" stop-color="#F87717"/>
<stop offset="1" stop-color="#FECE24"/>
</linearGradient>
<linearGradient id="paint3_linear_15_596" x1="55.9067" y1="27.4483" x2="55.3259" y2="20.3374" gradientUnits="userSpaceOnUse">
<stop stop-color="#D61607"/>
<stop offset="0.489583" stop-color="#F87717"/>
<stop offset="1" stop-color="#FECE24"/>
</linearGradient>
<linearGradient id="paint4_linear_15_596" x1="55.9067" y1="15.0108" x2="55.3259" y2="7.89993" gradientUnits="userSpaceOnUse">
<stop stop-color="#D61607"/>
<stop offset="0.489583" stop-color="#F87717"/>
<stop offset="1" stop-color="#FECE24"/>
</linearGradient>
</defs>
</svg>
