<svg width="40" height="40" fill="none" xmlns="http://www.w3.org/2000/svg"><path d="M20 36.666c9.205 0 16.667-7.462 16.667-16.666 0-9.205-7.462-16.667-16.666-16.667-9.205 0-16.667 7.462-16.667 16.667 0 9.204 7.462 16.666 16.667 16.666Z" stroke="url(#a)" stroke-width="2" stroke-linecap="round" stroke-linejoin="round"/><path d="M13.333 5H15a47.373 47.373 0 0 0 0 30h-1.667" stroke="url(#b)" stroke-width="2" stroke-linecap="round" stroke-linejoin="round"/><path d="M25 5a47.373 47.373 0 0 1 0 30" stroke="url(#c)" stroke-width="2" stroke-linecap="round" stroke-linejoin="round"/><path d="M5 26.667V25a47.373 47.373 0 0 0 30 0v1.667" stroke="url(#d)" stroke-width="2" stroke-linecap="round" stroke-linejoin="round"/><path d="M5 15a47.373 47.373 0 0 1 30 0" stroke="url(#e)" stroke-width="2" stroke-linecap="round" stroke-linejoin="round"/><defs><linearGradient id="a" x1="59.897" y1="36.814" x2="10.952" y2="-11.881" gradientUnits="userSpaceOnUse"><stop stop-color="#D61607"/><stop offset=".49" stop-color="#F87717"/><stop offset="1" stop-color="#FECE24"/></linearGradient><linearGradient id="b" x1="16.699" y1="35.133" x2="9.623" y2="34.561" gradientUnits="userSpaceOnUse"><stop stop-color="#D61607"/><stop offset=".49" stop-color="#F87717"/><stop offset="1" stop-color="#FECE24"/></linearGradient><linearGradient id="c" x1="29.136" y1="35.133" x2="22.061" y2="34.561" gradientUnits="userSpaceOnUse"><stop stop-color="#D61607"/><stop offset=".49" stop-color="#F87717"/><stop offset="1" stop-color="#FECE24"/></linearGradient><linearGradient id="d" x1="55.907" y1="27.448" x2="55.326" y2="20.337" gradientUnits="userSpaceOnUse"><stop stop-color="#D61607"/><stop offset=".49" stop-color="#F87717"/><stop offset="1" stop-color="#FECE24"/></linearGradient><linearGradient id="e" x1="55.907" y1="15.011" x2="55.326" y2="7.9" gradientUnits="userSpaceOnUse"><stop stop-color="#D61607"/><stop offset=".49" stop-color="#F87717"/><stop offset="1" stop-color="#FECE24"/></linearGradient></defs></svg>