<svg width="148" height="66" fill="none" xmlns="http://www.w3.org/2000/svg"><path d="m10.16 66-2.6-3.3H4.48v-3.04h4.48c.48 0 .873-.147 1.18-.44.307-.307.46-.713.46-1.22s-.153-.907-.46-1.2c-.307-.307-.7-.46-1.18-.46H3.48V66H0V53h8.96c.747 0 1.433.12 2.06.36a4.628 4.628 0 0 1 1.62.98c.467.427.827.94 1.08 1.54.253.6.38 1.26.38 1.98 0 1-.24 1.873-.72 2.62a4.614 4.614 0 0 1-1.94 1.7L14.72 66h-4.56Zm18.61 0-1.08-2h-6.1l1.48-2.78h3.14l-2.22-4.18L19.23 66h-3.86l6.64-12.04c.36-.64.88-.96 1.56-.96h.8c.68 0 1.2.32 1.56.96L32.57 66h-3.8Zm20.769 0-1.92-8.36-2.26 7.12c-.24.827-.787 1.24-1.64 1.24h-1.06c-.854 0-1.4-.413-1.64-1.24l-2.26-7.26-1.92 8.5h-3.46l2.64-11.52c.106-.547.306-.927.6-1.14.293-.227.66-.34 1.1-.34h1.46c.853 0 1.406.42 1.66 1.26l2.36 7.78 2.34-7.78c.253-.84.8-1.26 1.64-1.26h1.46c.44 0 .806.113 1.1.34.293.213.5.593.62 1.14L53.019 66h-3.48Zm12.967-3.36a3.52 3.52 0 0 0 1.26-.22c.387-.16.72-.373 1-.64a2.8 2.8 0 0 0 .64-1c.16-.387.24-.813.24-1.28 0-.467-.08-.893-.24-1.28a2.799 2.799 0 0 0-.64-1 2.799 2.799 0 0 0-1-.64 3.263 3.263 0 0 0-1.26-.24h-2.36c-.454 0-.873.08-1.26.24-.387.147-.72.36-1 .64s-.5.613-.66 1c-.16.387-.24.813-.24 1.28 0 .467.073.893.22 1.28.16.387.38.72.66 1 .28.267.613.48 1 .64.386.147.813.22 1.28.22h2.36ZM60.386 66c-1 0-1.92-.153-2.76-.46a6.766 6.766 0 0 1-2.18-1.32 6.25 6.25 0 0 1-1.42-2.06c-.347-.8-.52-1.687-.52-2.66 0-.973.173-1.853.52-2.64a6.25 6.25 0 0 1 1.42-2.06 6.33 6.33 0 0 1 2.18-1.32c.84-.32 1.76-.48 2.76-.48h1.88c.986 0 1.9.16 2.74.48a6.13 6.13 0 0 1 2.16 1.32 6.109 6.109 0 0 1 1.44 2.06c.346.787.52 1.667.52 2.64 0 .973-.174 1.86-.52 2.66a6.109 6.109 0 0 1-1.44 2.06c-.6.56-1.32 1-2.16 1.32-.84.307-1.754.46-2.74.46h-1.88Zm10.056 0v-3.36h9.72c.253 0 .46-.073.62-.22.16-.16.24-.38.24-.66s-.08-.5-.24-.66a.839.839 0 0 0-.62-.24h-5.72c-.6 0-1.16-.093-1.68-.28a4.371 4.371 0 0 1-1.32-.8 3.9 3.9 0 0 1-.86-1.24 4.12 4.12 0 0 1-.3-1.6c0-.587.1-1.12.3-1.6.213-.493.5-.913.86-1.26a3.895 3.895 0 0 1 1.32-.8c.52-.187 1.08-.28 1.68-.28h9.88v3.34h-9.72c-.254 0-.46.073-.62.22-.147.147-.22.36-.22.64 0 .267.073.48.22.64.16.16.366.24.62.24h5.72c.613 0 1.173.1 1.68.3.506.187.946.453 1.32.8.373.347.66.767.86 1.26.213.48.32 1.007.32 1.58 0 .6-.107 1.147-.32 1.64-.2.48-.487.9-.86 1.26a3.893 3.893 0 0 1-1.32.8 4.826 4.826 0 0 1-1.68.28h-9.88Zm20.448-5.14v-2.78h7.68v2.78h-7.68ZM86.23 66V53h12.48v3.34h-8.98v6.3h9V66h-12.5Zm25.292 0-3.84-4.48-3.74 4.48h-4.16l5.7-6.78-5.24-6.22h4.42l3.3 3.94 3.32-3.94h4.16l-5.26 6.24 5.76 6.76h-4.42Zm10.126-3.22v-3.1h4.22c.467 0 .853-.153 1.16-.46.32-.307.48-.707.48-1.2 0-.507-.16-.913-.48-1.22-.307-.307-.693-.46-1.16-.46h-5.22V66h-3.48V53h8.64c.76 0 1.453.12 2.08.36a4.83 4.83 0 0 1 1.64 1c.467.427.827.94 1.08 1.54.253.6.38 1.267.38 2 0 .72-.127 1.38-.38 1.98-.253.6-.613 1.12-1.08 1.56-.453.427-1 .76-1.64 1-.627.227-1.32.34-2.08.34h-4.16Zm19.647-.14a3.52 3.52 0 0 0 1.26-.22 3.21 3.21 0 0 0 1-.64 2.8 2.8 0 0 0 .64-1c.16-.387.24-.813.24-1.28 0-.467-.08-.893-.24-1.28a2.803 2.803 0 0 0-.64-1 2.796 2.796 0 0 0-1-.64 3.265 3.265 0 0 0-1.26-.24h-2.36c-.453 0-.873.08-1.26.24-.387.147-.72.36-1 .64s-.5.613-.66 1c-.16.387-.24.813-.24 1.28 0 .467.073.893.22 1.28.16.387.38.72.66 1 .28.267.613.48 1 .64.386.147.813.22 1.28.22h2.36Zm-2.12 3.36c-1 0-1.92-.153-2.76-.46a6.763 6.763 0 0 1-2.18-1.32 6.255 6.255 0 0 1-1.42-2.06c-.347-.8-.52-1.687-.52-2.66 0-.973.173-1.853.52-2.64.347-.8.82-1.487 1.42-2.06a6.327 6.327 0 0 1 2.18-1.32c.84-.32 1.76-.48 2.76-.48h1.88c.987 0 1.9.16 2.74.48a6.13 6.13 0 0 1 2.16 1.32 6.117 6.117 0 0 1 1.44 2.06c.347.787.52 1.667.52 2.64 0 .973-.173 1.86-.52 2.66a6.117 6.117 0 0 1-1.44 2.06c-.6.56-1.32 1-2.16 1.32-.84.307-1.753.46-2.74.46h-1.88Z" fill="#242424"/><path d="m50.509 3.935 19.508 19.459L50.51 42.853 31 23.393 50.509 3.936Z" fill="url(#a)"/><path d="m96.509 3.935 19.508 19.459-19.508 19.459L77 23.393 96.509 3.936Z" fill="url(#b)"/><path d="m73.517 0 11.564 11.534-11.564 11.533-11.563-11.533L73.517 0Z" fill="#FCCB17"/><path d="m73.517 22.933 11.564 11.533L73.517 46 61.954 34.466l11.563-11.533Z" fill="#E84B0F"/><defs><linearGradient id="a" x1="64.017" y1="56.5" x2="63.872" y2="-.5" gradientUnits="userSpaceOnUse"><stop stop-color="#D61607"/><stop offset=".49" stop-color="#F87717"/><stop offset="1" stop-color="#FECE24"/></linearGradient><linearGradient id="b" x1="110.018" y1="56.5" x2="109.872" y2="-.5" gradientUnits="userSpaceOnUse"><stop stop-color="#D61607"/><stop offset=".49" stop-color="#F87717"/><stop offset="1" stop-color="#FECE24"/></linearGradient></defs></svg>