<svg width="138" height="94" fill="none" xmlns="http://www.w3.org/2000/svg"><path d="M47.539 44.429h-.744c-.474 0-1.1.01-1.876.032h-2.491v5.425h-4.302V36.75c0-.632.13-1.1.388-1.405.28-.327.808-.49 1.585-.49h1.39a59.805 59.805 0 0 1 2.071-.033h2.394a43.782 43.782 0 0 1 2.394 0c.754 0 1.412.01 1.973.032.582 0 1.013.011 1.294.033 1.143.11 1.995.48 2.555 1.111.561.61.841 1.569.841 2.876 0 1.133-.108 1.994-.323 2.582-.216.566-.55.991-1.003 1.274-.108.087-.28.164-.518.23a2.445 2.445 0 0 1-.711.097v.098h.809c.819.153 1.315.48 1.487.98.173.48.26.981.26 1.504v3.203c0 .326.032.577.096.751.065.174.108.273.13.294h-3.17c-.475 0-.841-.076-1.1-.229-.259-.152-.388-.49-.388-1.013v-2.581c0-.676-.151-1.111-.453-1.308-.28-.217-.787-.326-1.52-.326h-1.068Zm-5.111-2.157c.259 0 .658.01 1.197.032.56 0 1.154.011 1.779.033h2.976c.582 0 1.1-.185 1.553-.555.453-.392.679-1.1.679-2.125 0-.718-.13-1.285-.388-1.699-.259-.414-.669-.654-1.23-.719-.366-.043-.83-.065-1.39-.065a45.205 45.205 0 0 0-3.43 0c-.495 0-.873.01-1.131.032-.044 0-.162.033-.356.098-.173.066-.26.24-.26.523v4.445Z" fill="#FD292F"/><path d="m57.268 49.66 4.85-12.492c.302-.798.744-1.413 1.326-1.845.582-.453 1.52-.68 2.813-.68 1.078 0 1.929.206 2.554.616.625.41 1.11 1.046 1.455 1.91l4.915 12.49h-4.689l-1.39-3.591h-7.21l-1.294 3.592h-3.33Zm5.335-5.308h5.69l-1.875-5.242a1.847 1.847 0 0 0-.29-.583c-.108-.194-.324-.291-.647-.291-.367 0-.615.097-.744.291a3.662 3.662 0 0 0-.29.583l-1.844 5.242Zm15.202 5.308V36.294c0-.69.097-1.11.291-1.262.216-.172.668-.259 1.358-.259h3.266l4.332 9.644.065.291.065-.032.064-.324 4.236-9.579h3.46c.668 0 1.1.087 1.293.26.194.172.291.56.291 1.164v12.039c0 .453-.054.777-.161.97-.087.195-.248.324-.486.389-.215.043-.538.065-.97.065h-2.716V39.433l-.194.745-4.17 9.482h-2.684l-4.106-9.353-.162-.744V49.66h-3.072Zm31.101.226c-1.573 0-2.931-.108-4.074-.323-1.121-.216-2.058-.604-2.813-1.165-.733-.561-1.282-1.338-1.649-2.33-.345-1.014-.517-2.298-.517-3.851 0-1.597.183-2.892.55-3.884.388-1.014.959-1.79 1.713-2.33.776-.56 1.735-.95 2.878-1.165 1.164-.216 2.522-.324 4.074-.324s2.888.108 4.009.324c1.143.216 2.08.604 2.813 1.165.755.561 1.304 1.349 1.649 2.362.367.993.55 2.277.55 3.852 0 1.575-.194 2.869-.582 3.883-.367.992-.927 1.769-1.681 2.33-.755.56-1.714.95-2.878 1.165-1.143.194-2.49.291-4.042.291Zm.065-2.297c.776 0 1.455-.065 2.037-.195.603-.15 1.099-.42 1.487-.809.388-.388.679-.927.873-1.618.194-.712.291-1.629.291-2.75 0-1.144-.097-2.06-.291-2.751-.194-.712-.485-1.262-.873-1.65-.388-.389-.884-.648-1.487-.777-.582-.151-1.261-.227-2.037-.227-.798 0-1.498.076-2.102.227a2.895 2.895 0 0 0-1.455.776c-.366.389-.646.939-.84 1.65-.194.691-.291 1.608-.291 2.752 0 1.121.097 2.038.291 2.75.194.69.474 1.23.84 1.618.388.389.873.658 1.455.81.604.129 1.304.194 2.102.194Zm11.664-1.004c.517.26 1.175.453 1.972.583.798.108 1.628.183 2.49.226a92.74 92.74 0 0 0 2.295.033h.873c.367 0 .669-.011.906-.033.69-.021 1.282-.097 1.778-.226.496-.151.873-.389 1.132-.712.258-.324.388-.777.388-1.36 0-.711-.194-1.175-.582-1.39-.388-.238-.981-.357-1.779-.357h-3.75a20.7 20.7 0 0 1-2.005-.097 6.245 6.245 0 0 1-1.843-.453 2.853 2.853 0 0 1-1.293-1.133c-.323-.539-.485-1.283-.485-2.233 0-1.121.194-1.995.582-2.62a3.433 3.433 0 0 1 1.649-1.425c.711-.323 1.552-.528 2.522-.615a36 36 0 0 1 3.168-.13c.69 0 1.445.012 2.264.033.819.022 1.584.065 2.295.13.733.064 1.294.162 1.682.29.603.044 1.067.217 1.39.519.323.28.485.636.485 1.068v1.165c-.172-.173-.496-.313-.97-.421a9.98 9.98 0 0 0-1.584-.227 23.78 23.78 0 0 0-1.746-.129 41.057 41.057 0 0 0-1.488-.032h-2.554a8.36 8.36 0 0 0-1.746.161c-.474.108-.851.313-1.132.615-.258.28-.388.712-.388 1.295 0 .453.087.809.259 1.068.194.237.464.399.808.485.367.086.82.13 1.358.13h4.398c1.013 0 1.897.086 2.651.258.755.173 1.337.55 1.746 1.133.431.583.647 1.489.647 2.719 0 1.165-.248 2.092-.744 2.783-.474.69-1.132 1.186-1.972 1.488-.841.302-1.822.486-2.943.55a31.62 31.62 0 0 1-2.425.098h-2.457a69.451 69.451 0 0 1-2.166-.098 11.625 11.625 0 0 1-1.876-.258c-.538-.13-.98-.303-1.325-.518a1.11 1.11 0 0 1-.485-.939v-1.424Zm-6.038 16.137c-.607 0-1.109-.036-1.505-.109-.395-.081-.708-.218-.938-.408-.231-.191-.396-.464-.497-.818-.102-.354-.152-.808-.152-1.362 0-.69.092-1.244.276-1.662.193-.418.524-.722.994-.913.478-.19 1.141-.286 1.988-.286.663 0 1.192.073 1.588.218.395.146.681.377.856.695.174.309.262.709.262 1.199v.953h-3.866c0-.163.037-.3.111-.408.082-.118.225-.177.428-.177h1.822v-.327c-.009-.436-.106-.759-.29-.967-.175-.21-.497-.314-.966-.314-.396 0-.704.06-.925.177-.212.118-.364.318-.456.6-.083.281-.124.676-.124 1.185 0 .49.05.863.152 1.117a.865.865 0 0 0 .524.517c.258.082.612.123 1.063.123.166 0 .373-.005.622-.014l.773-.027c.267-.018.501-.036.704-.054a2.84 2.84 0 0 0 .386-.068v.218c0 .108-.023.227-.069.354a.492.492 0 0 1-.262.286c-.175.109-.469.181-.884.218a18.88 18.88 0 0 1-1.615.054Zm3.246-.082 2.098-2.697-1.657-2.234a3.095 3.095 0 0 0-.207-.286.764.764 0 0 0-.221-.231h2.154l1.201 1.607 1.243-1.607h1.256a.785.785 0 0 1-.097.109 3.535 3.535 0 0 0-.138.19l-1.56 2.234 2.182 2.916h-1.422c-.24 0-.447-.041-.622-.123a1.267 1.267 0 0 1-.469-.395l-1.022-1.349-1.449 1.867h-1.27Zm6.907 1.458.013-5.816c0-.228-.004-.432-.013-.613 0-.182-.01-.291-.028-.327a3.25 3.25 0 0 1 .442-.055c.221-.027.474-.05.759-.068.295-.018.589-.032.884-.04.303-.02.575-.028.814-.028.819 0 1.459.095 1.919.286.47.19.796.495.98.913.194.408.281.944.263 1.607-.019.672-.111 1.212-.276 1.621a1.52 1.52 0 0 1-.787.858c-.359.164-.856.245-1.491.245-.387 0-.723-.036-1.008-.109a1.448 1.448 0 0 1-.663-.354 1.513 1.513 0 0 1-.359-.654l.249-.136v2.67h-1.698Zm3.037-2.316c.478 0 .81-.15.994-.45.193-.308.29-.803.29-1.484.018-.663-.074-1.126-.276-1.39-.203-.272-.576-.408-1.119-.408a7.255 7.255 0 0 0-.869.054 12.7 12.7 0 0 0-.359.028v2.22c0 .39.055.69.165.9.111.199.263.34.456.421.202.073.442.11.718.11Zm7.074.94c-.488 0-.921-.032-1.298-.095a2.43 2.43 0 0 1-.967-.395c-.257-.2-.455-.486-.593-.858-.138-.373-.207-.854-.207-1.444s.069-1.072.207-1.444c.138-.372.336-.654.593-.845.267-.2.589-.331.967-.395a6.91 6.91 0 0 1 1.298-.109c.497 0 .929.036 1.297.11.378.063.695.194.953.394.258.19.451.473.58.845.138.372.207.853.207 1.444 0 .6-.069 1.085-.207 1.457-.129.364-.322.645-.58.845-.258.19-.575.322-.953.395a7.94 7.94 0 0 1-1.297.095Zm0-.83c.294 0 .538-.05.731-.15.203-.1.355-.291.456-.573.101-.281.152-.694.152-1.24 0-.544-.051-.957-.152-1.239-.101-.281-.253-.472-.456-.572-.193-.1-.437-.15-.731-.15-.286 0-.53.05-.732.15-.203.1-.359.29-.47.572-.11.282-.165.695-.165 1.24s.055.958.165 1.24c.111.28.267.472.47.571.202.1.446.15.732.15Z" fill="#000"/><path d="M9.15 38.938c.268-15.661 24.859-40.452 52.677-27.323" stroke="url(#a)" stroke-width="4" stroke-dasharray="1 1"/><path d="M38.647 2.49c-8.388.888-26.773 7.748-33.355 27.294" stroke="url(#b)" stroke-width="4" stroke-dasharray="1 1"/><path d="M2.188 52.823c1.012 9.31 10.138 31.643 32.444 35.124" stroke="url(#c)" stroke-width="4" stroke-dasharray="1 1"/><path d="M38.078 14.478c5.448-1.385 18.696-1.792 28.102 7.665" stroke="url(#d)" stroke-width="4" stroke-dasharray="1 1"/><path d="M45.46 2.411c5.895-1.056 21.094 1.16 32.051 12.97" stroke="url(#e)" stroke-width="4" stroke-dasharray="1 1"/><path d="M49.301 71.201c2.527.13 9.151.242 15.83-4.21" stroke="url(#f)" stroke-width="4" stroke-dasharray="1 1"/><path d="M42.393 63.825c-9.24-3.108-16.323-8.775-14.845-22.015" stroke="url(#g)" stroke-width="4" stroke-dasharray="1 1"/><path d="M46.26 64.752c1.807.358 9.359 1.227 16.038-3.63" stroke="url(#h)" stroke-width="4" stroke-dasharray="1 1"/><path d="M23.747 32.516c2.356-4.511 10.677-15.26 28.026-11.265" stroke="url(#i)" stroke-width="4" stroke-dasharray="1 1"/><path d="M22.326 35.755c-3.266 9.221-2.78 30.27 22.618 35.426" stroke="url(#j)" stroke-width="4" stroke-dasharray="1 1"/><path d="M33.431 16.084C23.45 19.311 6.86 35.442 18.071 61.191" stroke="url(#k)" stroke-width="4" stroke-dasharray="1 1"/><path d="M24.222 67.983c3.42 4.018 15.408 12.163 29.07 9.102" stroke="url(#l)" stroke-width="4" stroke-dasharray="1 1"/><path d="M8.74 46.414c-.568 8.593 4.46 29.35 27.368 35.602 4.582 1.251 19.68 4.12 28.619-2.072" stroke="url(#m)" stroke-width="4" stroke-dasharray="1 1"/><defs><linearGradient id="a" x1="103.824" y1="22.092" x2="67.046" y2="-32.986" gradientUnits="userSpaceOnUse"><stop stop-color="#D61607"/><stop offset=".49" stop-color="#F87717"/><stop offset="1" stop-color="#FECE24"/></linearGradient><linearGradient id="b" x1="61.892" y1="29.905" x2="22.568" y2="-17.906" gradientUnits="userSpaceOnUse"><stop stop-color="#D61607"/><stop offset=".49" stop-color="#F87717"/><stop offset="1" stop-color="#FECE24"/></linearGradient><linearGradient id="c" x1="20.885" y1="18.069" x2="-26.32" y2="62.022" gradientUnits="userSpaceOnUse"><stop stop-color="#D61607"/><stop offset=".49" stop-color="#F87717"/><stop offset="1" stop-color="#FECE24"/></linearGradient><linearGradient id="d" x1="84.238" y1="18.965" x2="64.816" y2="-7.997" gradientUnits="userSpaceOnUse"><stop stop-color="#D61607"/><stop offset=".49" stop-color="#F87717"/><stop offset="1" stop-color="#FECE24"/></linearGradient><linearGradient id="e" x1="99.192" y1="13.816" x2="78.694" y2="-20.898" gradientUnits="userSpaceOnUse"><stop stop-color="#D61607"/><stop offset=".49" stop-color="#F87717"/><stop offset="1" stop-color="#FECE24"/></linearGradient><linearGradient id="f" x1="76.525" y1="69.233" x2="74.045" y2="60.501" gradientUnits="userSpaceOnUse"><stop stop-color="#D61607"/><stop offset=".49" stop-color="#F87717"/><stop offset="1" stop-color="#FECE24"/></linearGradient><linearGradient id="g" x1="50.571" y1="62.469" x2="20.515" y2="53.953" gradientUnits="userSpaceOnUse"><stop stop-color="#D61607"/><stop offset=".49" stop-color="#F87717"/><stop offset="1" stop-color="#FECE24"/></linearGradient><linearGradient id="h" x1="73.529" y1="58.757" x2="70.586" y2="52.579" gradientUnits="userSpaceOnUse"><stop stop-color="#D61607"/><stop offset=".49" stop-color="#F87717"/><stop offset="1" stop-color="#FECE24"/></linearGradient><linearGradient id="i" x1="71.184" y1="13.134" x2="62.271" y2="-.408" gradientUnits="userSpaceOnUse"><stop stop-color="#D61607"/><stop offset=".49" stop-color="#F87717"/><stop offset="1" stop-color="#FECE24"/></linearGradient><linearGradient id="j" x1="58.303" y1="68.964" x2="9.517" y2="54.704" gradientUnits="userSpaceOnUse"><stop stop-color="#D61607"/><stop offset=".49" stop-color="#F87717"/><stop offset="1" stop-color="#FECE24"/></linearGradient><linearGradient id="k" x1="57.543" y1="54.309" x2="-.311" y2="33.204" gradientUnits="userSpaceOnUse"><stop stop-color="#D61607"/><stop offset=".49" stop-color="#F87717"/><stop offset="1" stop-color="#FECE24"/></linearGradient><linearGradient id="l" x1="71.571" y1="73.543" x2="47.427" y2="44.743" gradientUnits="userSpaceOnUse"><stop stop-color="#D61607"/><stop offset=".49" stop-color="#F87717"/><stop offset="1" stop-color="#FECE24"/></linearGradient><linearGradient id="m" x1="99.301" y1="75.718" x2="22.404" y2="15.848" gradientUnits="userSpaceOnUse"><stop stop-color="#D61607"/><stop offset=".49" stop-color="#F87717"/><stop offset="1" stop-color="#FECE24"/></linearGradient></defs></svg>