<svg xmlns="http://www.w3.org/2000/svg" width="40" height="40" fill="none"><path d="M36.666 28.667c0 1.5-.417 2.916-1.167 4.116a7.947 7.947 0 0 1-6.833 3.884 7.926 7.926 0 0 1-6.833-3.884 7.896 7.896 0 0 1-1.167-4.116c0-4.417 3.583-8 8-8s8 3.583 8 8Z" stroke="url(#a)" stroke-width="2" stroke-miterlimit="10" stroke-linecap="round" stroke-linejoin="round"/><path d="m25.549 28.667 1.966 1.966 4.267-3.933" stroke="url(#b)" stroke-width="2" stroke-linecap="round" stroke-linejoin="round"/><path d="M36.667 14.483c0 3.284-.85 6.184-2.183 8.7a7.99 7.99 0 0 0-5.817-2.516c-4.416 0-8 3.583-8 8 0 2.05.784 3.916 2.05 5.333-.616.283-1.183.517-1.683.683-.567.2-1.5.2-2.067 0-4.833-1.65-15.633-8.533-15.633-20.2 0-5.15 4.15-9.316 9.267-9.316A9.248 9.248 0 0 1 20 8.883a9.248 9.248 0 0 1 7.4-3.716c5.116 0 9.266 4.166 9.266 9.316Z" stroke="url(#c)" stroke-width="2" stroke-linecap="round" stroke-linejoin="round"/><defs><linearGradient id="a" x1="47.816" y1="36.738" x2="24.323" y2="13.364" gradientUnits="userSpaceOnUse"><stop stop-color="#D61607"/><stop offset=".49" stop-color="#F87717"/><stop offset="1" stop-color="#FECE24"/></linearGradient><linearGradient id="b" x1="36.126" y1="30.651" x2="30.901" y2="22.413" gradientUnits="userSpaceOnUse"><stop stop-color="#D61607"/><stop offset=".49" stop-color="#F87717"/><stop offset="1" stop-color="#FECE24"/></linearGradient><linearGradient id="c" x1="59.897" y1="34.965" x2="16.604" y2="-13.43" gradientUnits="userSpaceOnUse"><stop stop-color="#D61607"/><stop offset=".49" stop-color="#F87717"/><stop offset="1" stop-color="#FECE24"/></linearGradient></defs></svg>