<svg xmlns="http://www.w3.org/2000/svg" width="168" height="167" fill="none"><path d="M81.552 2.095a3.5 3.5 0 0 1 4.896 0l8.721 8.535a4.5 4.5 0 0 0 4.921.92l11.215-4.808a3.5 3.5 0 0 1 4.565 1.768l5.049 11.109a4.5 4.5 0 0 0 4.256 2.635l12.195-.432a3.5 3.5 0 0 1 3.618 3.299l.695 12.182a4.5 4.5 0 0 0 3.017 3.995l11.527 4.002a3.5 3.5 0 0 1 2.182 4.383l-3.752 11.611a4.498 4.498 0 0 0 1.37 4.815l9.303 7.896a3.5 3.5 0 0 1 .451 4.875l-7.693 9.472a4.5 4.5 0 0 0-.462 4.984l5.822 10.724a3.5 3.5 0 0 1-1.34 4.709l-10.595 6.052a4.498 4.498 0 0 0-2.231 4.481l1.555 12.103a3.5 3.5 0 0 1-2.951 3.907l-12.066 1.817a4.498 4.498 0 0 0-3.699 3.372l-2.922 11.847a3.501 3.501 0 0 1-4.163 2.578l-11.908-2.666a4.499 4.499 0 0 0-4.667 1.809l-7.005 9.991a3.5 3.5 0 0 1-4.812.9l-10.141-6.787a4.502 4.502 0 0 0-5.006 0l-10.14 6.787a3.5 3.5 0 0 1-4.813-.9l-7.005-9.991a4.5 4.5 0 0 0-4.667-1.809l-11.908 2.666a3.501 3.501 0 0 1-4.163-2.578l-2.922-11.847a4.499 4.499 0 0 0-3.699-3.372l-12.066-1.817a3.5 3.5 0 0 1-2.95-3.907l1.554-12.103a4.5 4.5 0 0 0-2.23-4.481l-10.596-6.052a3.5 3.5 0 0 1-1.34-4.709l5.822-10.724a4.5 4.5 0 0 0-.462-4.984L2.22 78.88a3.5 3.5 0 0 1 .451-4.875l9.303-7.896a4.5 4.5 0 0 0 1.37-4.815l-3.752-11.61a3.5 3.5 0 0 1 2.182-4.383L23.3 41.297a4.5 4.5 0 0 0 3.017-3.995l.695-12.182a3.5 3.5 0 0 1 3.618-3.299l12.195.432a4.5 4.5 0 0 0 4.256-2.635L52.13 8.51a3.5 3.5 0 0 1 4.565-1.768L67.91 11.55a4.5 4.5 0 0 0 4.92-.92l8.722-8.535Z" stroke="#FE921F"/></svg>